<svg id="Calque_1" data-name="Calque 1" xmlns="http://www.w3.org/2000/svg" viewBox="0 0 326.34 160.67"><defs><style>.cls-1{fill:#eceff1;}.cls-2{fill:#263238;}</style></defs><title>Plan de travail 1</title><path class="cls-1" d="M234.45,152.55a12.47,12.47,0,0,0,7.51,3.59v4.53Q228.37,160,207.6,160q-23.21,0-34.37.66v-4.53q8.51-.33,12.21-2.1a6.29,6.29,0,0,0,3.7-6.19q0-3.42-2.76-10.72L172.79,100H123.5l-6,15.58q-6.19,15.91-6.19,25.19,0,8.4,5,11.71t15,3.65v4.53Q116.1,160,103.28,160q-10.39,0-17.24.66v-4.53q11.27-1.88,19.45-23.76L157.1,0q3.65.33,7.85.33,4.42,0,7.85-.33l54.92,141.66Q230.69,149.18,234.45,152.55ZM148.7,34.37,125.27,95.47h45.86Z"/><path class="cls-2" d="M33.54,105.76a7.17,7.17,0,0,1,4.7,1.46,7.4,7.4,0,0,1,2.44,3.8l-2.46.49a5.78,5.78,0,0,0-1.81-2.7,4.43,4.43,0,0,0-2.88-1,4.63,4.63,0,0,0-3.79,1.91,8.37,8.37,0,0,0-1.5,5.31,9.82,9.82,0,0,0,1.35,5.45,4.42,4.42,0,0,0,3.95,2.05A4.91,4.91,0,0,0,37,121.4a3.89,3.89,0,0,0,1.26-3h2.46a5.68,5.68,0,0,1-2,4.54,7.94,7.94,0,0,1-5.35,1.68,6.72,6.72,0,0,1-5.5-2.6,10.79,10.79,0,0,1-2.1-7A9.91,9.91,0,0,1,28,108.21,7.13,7.13,0,0,1,33.54,105.76Z"/><path class="cls-2" d="M57.64,111.29a5.37,5.37,0,0,1-1.2,3.64,5.8,5.8,0,0,1-3.54,1.79l5.21,7.55h-3l-4.71-7.43H47.25v7.43H45V106.08H51.3a6.78,6.78,0,0,1,4.7,1.48A4.81,4.81,0,0,1,57.64,111.29Zm-6.51,4a4.37,4.37,0,0,0,3.11-1,3.45,3.45,0,0,0,1.06-2.63,3.41,3.41,0,0,0-1-2.6,4.16,4.16,0,0,0-3-1h-4v7.2Z"/><path class="cls-2" d="M62.67,106.08H73.87v2H65v6.1h8.39v1.94H65v6.19h8.91v2H62.67Z"/><path class="cls-2" d="M83,106.08h2.78l6.1,18.19H89.54L88,119.65H80.75l-1.56,4.63h-2.4Zm-1.68,11.77h6l-3-9Z"/><path class="cls-2" d="M91.69,106.08h14.14v2H99.9v16.23H97.62V108H91.69Z"/><path class="cls-2" d="M108.93,106.08h2.29v18.19h-2.29Z"/><path class="cls-2" d="M117,106.08l5.21,15.3,5.24-15.3h2.4l-6.45,18.19H121l-6.42-18.19Z"/><path class="cls-2" d="M133.28,106.08h11.19v2h-8.91v6.1H144v1.94h-8.39v6.19h8.91v2H133.28Z"/><path class="cls-2" d="M161.77,106.08a9.1,9.1,0,1,1,0,18.19h-5.35V106.08Zm-3.07,16.2h3.07a6.15,6.15,0,0,0,4.83-2,7.38,7.38,0,0,0,1.79-5.11,7.24,7.24,0,0,0-1.81-5.08,6.21,6.21,0,0,0-4.82-2h-3.07Z"/><path class="cls-2" d="M175.54,106.08h11.19v2h-8.91v6.1h8.39v1.94h-8.39v6.19h8.91v2H175.54Z"/><path class="cls-2" d="M191.83,106.08l5.21,15.3,5.24-15.3h2.4l-6.45,18.19h-2.37l-6.42-18.19Z"/><path class="cls-2" d="M208.08,106.08h11.19v2h-8.91v6.1h8.39v1.94h-8.39v6.19h8.91v2H208.08Z"/><path class="cls-2" d="M226.66,122.28h8.1v2H224.37V106.08h2.29Z"/><path class="cls-2" d="M244.33,105.76a7.34,7.34,0,0,1,5.71,2.42q2.18,2.42,2.18,7t-2.17,7a7.37,7.37,0,0,1-5.73,2.39,7.28,7.28,0,0,1-5.71-2.42q-2.15-2.41-2.15-7t2.15-7A7.29,7.29,0,0,1,244.33,105.76Zm0,2.05a4.81,4.81,0,0,0-4,1.91,8.84,8.84,0,0,0-1.47,5.5,8.58,8.58,0,0,0,1.47,5.44,5.31,5.31,0,0,0,8.06,0,8.53,8.53,0,0,0,1.49-5.44,8.78,8.78,0,0,0-1.49-5.5A4.85,4.85,0,0,0,244.33,107.82Z"/><path class="cls-2" d="M267,107.6a5.42,5.42,0,0,1,1.58,4.09,5.32,5.32,0,0,1-1.58,4.06,6.43,6.43,0,0,1-4.58,1.49h-3.59v7h-2.29V106.08h5.87A6.35,6.35,0,0,1,267,107.6Zm-4.58,7.68a3.9,3.9,0,0,0,2.85-1,3.51,3.51,0,0,0,1-2.62,3.66,3.66,0,0,0-1-2.66,3.8,3.8,0,0,0-2.85-1h-3.59v7.23Z"/><path class="cls-2" d="M272.59,106.08h11.19v2h-8.91v6.1h8.39v1.94h-8.39v6.19h8.91v2H272.59Z"/><path class="cls-2" d="M301.55,111.29a5.37,5.37,0,0,1-1.2,3.64,5.8,5.8,0,0,1-3.54,1.79l5.21,7.55h-3l-4.71-7.43h-3.18v7.43h-2.29V106.08h6.33a6.78,6.78,0,0,1,4.7,1.48A4.81,4.81,0,0,1,301.55,111.29Zm-6.51,4a4.37,4.37,0,0,0,3.11-1,3.45,3.45,0,0,0,1.06-2.63,3.41,3.41,0,0,0-1-2.6,4.16,4.16,0,0,0-3-1h-4v7.2Z"/><path class="cls-2" d="M29,81.94a2.44,2.44,0,0,0,1.47.7v.89q-2.66-.13-6.72-.13-4.54,0-6.72.13v-.89a6.56,6.56,0,0,0,2.39-.41A1.23,1.23,0,0,0,20.16,81a6.77,6.77,0,0,0-.54-2.1L17,71.67H7.32l-1.17,3a14.6,14.6,0,0,0-1.21,4.93,2.55,2.55,0,0,0,1,2.29,5.7,5.7,0,0,0,2.94.71v.89q-3-.13-5.49-.13-2,0-3.37.13v-.89Q2.2,82.28,3.8,78L13.89,52.12q.71.07,1.53.06T17,52.12L27.69,79.81A5.63,5.63,0,0,0,29,81.94ZM12.25,58.84,7.67,70.78h9Z"/><path class="cls-2" d="M47.67,60a8.62,8.62,0,0,1,3,.43,4.58,4.58,0,0,1,1.89,1.27,5.07,5.07,0,0,1,1.06,2.18,15.8,15.8,0,0,1,.32,3.59v11.9a5.26,5.26,0,0,0,.28,1.92,1.74,1.74,0,0,0,.89,1,4,4,0,0,0,1.66.28v.93q-4.41-.17-5.83-.17t-5.77.17V82.6a3,3,0,0,0,1.43-.28,1.61,1.61,0,0,0,.75-1,6.41,6.41,0,0,0,.23-1.92V65.66A5.14,5.14,0,0,0,47,62.92,2.35,2.35,0,0,0,44.8,62a3.91,3.91,0,0,0-2.21.67A4.64,4.64,0,0,0,41,64.51a5.79,5.79,0,0,0-.58,2.6V79.42a6.15,6.15,0,0,0,.24,1.92,1.65,1.65,0,0,0,.76,1,3,3,0,0,0,1.4.28v.93q-4.06-.17-5.49-.17t-6.11.17V82.6a4.11,4.11,0,0,0,1.67-.28,1.69,1.69,0,0,0,.89-1A5.46,5.46,0,0,0,34,79.42v-14a5.41,5.41,0,0,0-.63-3,2.48,2.48,0,0,0-2.2-.92v-.93q1.4.13,2.74.13a28.66,28.66,0,0,0,6.46-.6v4Q42.43,60,47.67,60Z"/><path class="cls-2" d="M72.6,60.7v.89H67.38V79.42a2.87,2.87,0,0,0,.48,1.87,1.84,1.84,0,0,0,1.47.55q1.88,0,3-2.66l.76.41q-1.66,4.56-6,4.56a6,6,0,0,1-4.43-1.51,4.66,4.66,0,0,1-1.26-2.3A17.36,17.36,0,0,1,61,76.49V61.58H57.29V60.7H61V54.82a13.55,13.55,0,0,0,6.37-1.43v7.3Z"/><path class="cls-2" d="M90.14,60q3.44,0,4.86,1.71A5.46,5.46,0,0,1,96.08,64a14.77,14.77,0,0,1,.35,3.56v11.9a5.44,5.44,0,0,0,.27,1.92,1.69,1.69,0,0,0,.87,1,4.1,4.1,0,0,0,1.69.28v.93q-4.67-.17-5.85-.17-1.51,0-5.75.17V82.6a3,3,0,0,0,1.4-.28,1.65,1.65,0,0,0,.76-1,6.15,6.15,0,0,0,.24-1.92V65.66a5.14,5.14,0,0,0-.59-2.74A2.35,2.35,0,0,0,87.31,62a4,4,0,0,0-2.21.66,4.59,4.59,0,0,0-1.59,1.81,5.7,5.7,0,0,0-.58,2.6V79.42a6.42,6.42,0,0,0,.23,1.92,1.63,1.63,0,0,0,.73,1,3,3,0,0,0,1.42.28v.93q-4.23-.17-5.46-.17-1.54,0-6.11.17V82.6a4,4,0,0,0,1.66-.28,1.74,1.74,0,0,0,.89-1,5.28,5.28,0,0,0,.28-1.92V54.24a5.34,5.34,0,0,0-.64-3,2.48,2.48,0,0,0-2.19-.92v-.93q1.4.13,2.74.13a27.89,27.89,0,0,0,6.46-.63V64.15Q84.92,60,90.14,60Z"/><path class="cls-2" d="M120.2,62.94q2.88,2.89,2.88,9.18t-2.88,9.15a10.73,10.73,0,0,1-7.94,2.88,10.77,10.77,0,0,1-7.95-2.88q-2.89-2.88-2.89-9.15T104.32,63A10.72,10.72,0,0,1,112.26,60,10.71,10.71,0,0,1,120.2,62.94Zm-11,.73q-1.14,2.77-1.13,8.45t1.13,8.4q1.13,2.74,3,2.74t3-2.73q1.11-2.73,1.11-8.41t-1.11-8.46q-1.11-2.75-3-2.75T109.23,63.68Z"/><path class="cls-2" d="M142.29,60a8.62,8.62,0,0,1,3,.43,4.58,4.58,0,0,1,1.89,1.27,5.07,5.07,0,0,1,1.06,2.18,15.8,15.8,0,0,1,.32,3.59v11.9a5.26,5.26,0,0,0,.28,1.92,1.74,1.74,0,0,0,.89,1,4,4,0,0,0,1.66.28v.93q-4.41-.17-5.83-.17t-5.77.17V82.6a3,3,0,0,0,1.43-.28,1.61,1.61,0,0,0,.75-1,6.41,6.41,0,0,0,.23-1.92V65.66a5.14,5.14,0,0,0-.59-2.74,2.35,2.35,0,0,0-2.15-.93,3.91,3.91,0,0,0-2.21.67,4.64,4.64,0,0,0-1.59,1.85,5.79,5.79,0,0,0-.58,2.6V79.42a6.15,6.15,0,0,0,.24,1.92,1.65,1.65,0,0,0,.76,1,3,3,0,0,0,1.4.28v.93q-4.06-.17-5.49-.17t-6.11.17V82.6a4.11,4.11,0,0,0,1.67-.28,1.69,1.69,0,0,0,.89-1,5.46,5.46,0,0,0,.27-1.92v-14a5.41,5.41,0,0,0-.63-3,2.48,2.48,0,0,0-2.2-.92v-.93q1.4.13,2.74.13a28.66,28.66,0,0,0,6.46-.6v4Q137,60,142.29,60Z"/><path class="cls-2" d="M170.74,60.78a33.75,33.75,0,0,0,3.41-.13v.89a3.29,3.29,0,0,0-1.67,1.1,8.6,8.6,0,0,0-1.39,2.7l-7.91,22.25a7.41,7.41,0,0,1-1.94,3.15,5.84,5.84,0,0,1-3.87,1.1,7,7,0,0,1-2.26-.38,4.28,4.28,0,0,1-1.84-1.18,2.85,2.85,0,0,1-.72-2,2.71,2.71,0,0,1,1-2.18,3.85,3.85,0,0,1,2.57-.82,3.74,3.74,0,0,1,2.41.73,2.48,2.48,0,0,1,.92,2.05,2.76,2.76,0,0,1-.59,1.7A3.54,3.54,0,0,1,157.2,91a8.52,8.52,0,0,0,1,0q2.76,0,4-3.5l.71-2.12-9.4-21.32a4.94,4.94,0,0,0-1.37-2,2.38,2.38,0,0,0-1.37-.48v-.93q2.92.26,6.07.26,2.61,0,6.16-.26v.93a13.33,13.33,0,0,0-1.49.06,2,2,0,0,0-.92.32,1,1,0,0,0-.38.84,3.39,3.39,0,0,0,.3,1.25L166,77.14l3-8.51a11.55,11.55,0,0,0,.71-3.54,3.5,3.5,0,0,0-.86-2.56,3.62,3.62,0,0,0-2.42-1v-.89Q168.52,60.78,170.74,60.78Z"/><path class="cls-2" d="M190.31,52.36l1.38,0,6.93-.13q8.64,0,12.93,3.91t4.29,11.41A16.54,16.54,0,0,1,213.75,76a14,14,0,0,1-6.07,5.59,21,21,0,0,1-9.44,2l-3-.06q-2.39-.06-3.42-.06-4.56,0-6.8.13v-.89a6.71,6.71,0,0,0,2.14-.35,1.6,1.6,0,0,0,.92-1,8.45,8.45,0,0,0,.25-2.42V56.89a8.45,8.45,0,0,0-.25-2.42,1.6,1.6,0,0,0-.92-1,6.73,6.73,0,0,0-2.14-.35v-.89Q187.81,52.36,190.31,52.36Zm5.27,29a1.74,1.74,0,0,0,1,1.1,5.33,5.33,0,0,0,2.09.31A9.13,9.13,0,0,0,204.45,81a9.47,9.47,0,0,0,3.11-5,30.84,30.84,0,0,0,.94-8.31,28.41,28.41,0,0,0-1-8.26,9.1,9.1,0,0,0-3.19-4.83,9.46,9.46,0,0,0-5.72-1.6,5.16,5.16,0,0,0-2.06.31,1.75,1.75,0,0,0-.94,1.11,8.2,8.2,0,0,0-.26,2.38V78.93A8.17,8.17,0,0,0,195.58,81.31Z"/><path class="cls-2" d="M241.52,81.68a2.48,2.48,0,0,0,2.19.92v.93q-1.38-.13-2.74-.13a27.87,27.87,0,0,0-6.46.63V80q-2,4.13-7.13,4.13-3.3,0-4.82-1.73a4.83,4.83,0,0,1-1-2.18,16.41,16.41,0,0,1-.31-3.56V65.47a5.34,5.34,0,0,0-.64-3,2.47,2.47,0,0,0-2.19-.93v-.93q1.4.13,2.74.13a29,29,0,0,0,6.46-.6V78.5a5.59,5.59,0,0,0,.55,2.78,2.21,2.21,0,0,0,2.08.94,3.7,3.7,0,0,0,2.15-.68,4.79,4.79,0,0,0,1.57-1.86,5.78,5.78,0,0,0,.58-2.6V65.47a5.34,5.34,0,0,0-.64-3,2.47,2.47,0,0,0-2.19-.93v-.93q1.4.13,2.74.13a29,29,0,0,0,6.46-.6V78.71A5.33,5.33,0,0,0,241.52,81.68Z"/><path class="cls-2" d="M266.43,79a4,4,0,0,1,1.65,3.62,7.8,7.8,0,0,1-1.43,4.4,10.31,10.31,0,0,1-4.32,3.49,16.52,16.52,0,0,1-7.06,1.36,24.56,24.56,0,0,1-5.43-.51A8.27,8.27,0,0,1,246.56,90a2.49,2.49,0,0,1-1.08-2,2,2,0,0,1,.9-1.77A13,13,0,0,1,249.31,85a11,11,0,0,0,2.87-1.25h-1a6.74,6.74,0,0,1-3.39-.89,3.38,3.38,0,0,1-1.55-3.22,4.94,4.94,0,0,1,.53-2.3,6.07,6.07,0,0,1,1.75-2,18.79,18.79,0,0,1,3.29-1.93,7.54,7.54,0,0,1-3.54-2.37,6.2,6.2,0,0,1-1.27-4,5.93,5.93,0,0,1,2.6-5.26,12.12,12.12,0,0,1,6.9-1.76,16.74,16.74,0,0,1,3.28.3,8.27,8.27,0,0,1,.17-2.23,5.06,5.06,0,0,1,1.25-2.95,3.82,3.82,0,0,1,2.94-1.11,3.57,3.57,0,0,1,2.32.75,2.4,2.4,0,0,1,.92,2,2.29,2.29,0,0,1-.87,1.85,3.33,3.33,0,0,1-2.19.72,3.19,3.19,0,0,1-2.09-.63A4,4,0,0,1,261,56.85a6.06,6.06,0,0,0-.67,2.27q0,.22,0,.65t0,.71a8.06,8.06,0,0,1,4.13,2.32A6.13,6.13,0,0,1,266,67.07,6.23,6.23,0,0,1,264.74,71a7.19,7.19,0,0,1-3.36,2.34,14.56,14.56,0,0,1-4.92.77,15.73,15.73,0,0,1-3.82-.43A9.61,9.61,0,0,0,250.74,75a1.89,1.89,0,0,0-.62,1.38q0,1.47,1.77,1.47h10.22A7.58,7.58,0,0,1,266.43,79Zm-14.54,6.47a5.07,5.07,0,0,0-.4,1.84,3.24,3.24,0,0,0,1.39,2.82,6.06,6.06,0,0,0,3.58,1,8.42,8.42,0,0,0,3.34-.66,5.8,5.8,0,0,0,2.46-1.91,4.8,4.8,0,0,0,.92-2.92,1.7,1.7,0,0,0-.56-1.4,3.3,3.3,0,0,0-2-.45H253A4.63,4.63,0,0,0,251.89,85.45Zm2.37-23.2a11,11,0,0,0-.76,4.82,11,11,0,0,0,.76,4.82,2.42,2.42,0,0,0,4.42,0,11.19,11.19,0,0,0,.75-4.82,11.19,11.19,0,0,0-.75-4.82,2.42,2.42,0,0,0-4.42,0Z"/><path class="cls-2" d="M289,62.94q2.88,2.89,2.88,9.18T289,81.27a12.38,12.38,0,0,1-15.89,0q-2.89-2.88-2.89-9.15T273.16,63a12.33,12.33,0,0,1,15.89,0Zm-11,.73q-1.14,2.77-1.13,8.45t1.13,8.4q1.13,2.74,3,2.74t3-2.73q1.11-2.73,1.11-8.41t-1.11-8.46q-1.11-2.75-3-2.75T278.07,63.68Z"/><path class="cls-2" d="M304.15,81.35a1.73,1.73,0,0,0,.89,1,4,4,0,0,0,1.66.28v.93q-4.41-.17-5.88-.17t-6.16.17V82.6a4.11,4.11,0,0,0,1.67-.28,1.69,1.69,0,0,0,.89-1,5.46,5.46,0,0,0,.27-1.92v-14a5.41,5.41,0,0,0-.63-3,2.48,2.48,0,0,0-2.2-.92v-.93q1.4.13,2.74.13a28.66,28.66,0,0,0,6.46-.6V79.42A5.26,5.26,0,0,0,304.15,81.35Zm-.81-31.19a3.4,3.4,0,0,1,0,5,5.23,5.23,0,0,1-5.89,0,3.42,3.42,0,0,1,0-5,5.23,5.23,0,0,1,5.89,0Z"/><path class="cls-2" d="M312.55,81a4.61,4.61,0,0,0,4.07,2.16,3.28,3.28,0,0,0,2.21-.79,3,3,0,0,0,.92-2.37,4.39,4.39,0,0,0-.55-2.2,6.85,6.85,0,0,0-1.39-1.73Q317,75.3,315.28,74q-2.05-1.66-3.08-2.61a9.15,9.15,0,0,1-1.76-2.26,6,6,0,0,1-.73-3,5.32,5.32,0,0,1,1-3.28,6.43,6.43,0,0,1,2.79-2.1,10,10,0,0,1,3.8-.71,11,11,0,0,1,3.09.41,8,8,0,0,1,2.2,1,1.4,1.4,0,0,0,.78.3q.82,0,1-1.62h1q-.17,2.23-.17,7.78h-1A11.13,11.13,0,0,0,322.53,63a4.45,4.45,0,0,0-3.92-2,3.11,3.11,0,0,0-2.16.76,2.64,2.64,0,0,0-.84,2.07,3.67,3.67,0,0,0,1,2.57,15,15,0,0,0,2.4,2.07q1.4,1,2.05,1.49a33.31,33.31,0,0,1,2.88,2.38,8.7,8.7,0,0,1,1.74,2.3,6.29,6.29,0,0,1,.67,2.95A5.52,5.52,0,0,1,325.21,81a7.31,7.31,0,0,1-3.06,2.3,10.74,10.74,0,0,1-4.21.81,8.64,8.64,0,0,1-4.1-.93,17.51,17.51,0,0,0-2.07-.93.72.72,0,0,0-.22,0q-.71,0-1,1.58h-1q.17-2.53.17-8.83h1A13.55,13.55,0,0,0,312.55,81Z"/></svg>
