<svg xmlns="http://www.w3.org/2000/svg" viewBox="0 0 155.92 160.67">
  <path d="M148.41,152.55a12.47,12.47,0,0,0,7.51,3.59v4.53q-13.59-.66-34.37-.66-23.21,0-34.37.66v-4.53q8.51-.33,12.21-2.1a6.29,6.29,0,0,0,3.7-6.19q0-3.42-2.76-10.72L86.75,100H37.46l-6,15.58q-6.19,15.91-6.19,25.19,0,8.4,5,11.71t15,3.65v4.53Q30.06,160,17.24,160,6.85,160,0,160.67v-4.53q11.27-1.88,19.45-23.76L71.05,0Q74.7.33,78.9.33q4.42,0,7.85-.33l54.92,141.66Q144.65,149.18,148.41,152.55ZM62.66,34.37,39.23,95.47H85.09Z" />
</svg>
